<svg width="26" height="26" viewBox="0 0 26 26" fill="none" xmlns="http://www.w3.org/2000/svg">
<path d="M26 13.0793C26 5.85599 20.1804 0 13.0006 0C5.82075 0 0 5.85599 0 13.0793C0 19.6099 4.75897 25.0229 10.9787 26V16.8573H7.65593V13.0781H10.9787V10.1963C10.9798 6.91857 12.91 5.1015 15.8796 5.1015C17.3024 5.1015 18.7788 5.37586 18.7788 5.37586V8.57259H17.1504C15.5365 8.57259 15.0202 9.59019 15.0202 10.6247L15.0235 13.0781H18.6347L18.0568 16.8573H15.0235V26C21.2421 25.0229 26.0011 19.6099 26.0011 13.0793" fill="#665C5C"/>
</svg>
