<svg width="25" height="27" viewBox="0 0 25 27" fill="none" xmlns="http://www.w3.org/2000/svg">
<path d="M12.5056 6.98647C8.95647 6.98647 6.09375 9.89214 6.09375 13.4945C6.09375 17.0968 8.95647 20.0025 12.5056 20.0025C16.0547 20.0025 18.9174 17.0968 18.9174 13.4945C18.9174 9.89214 16.0547 6.98647 12.5056 6.98647ZM12.5056 17.7255C10.2121 17.7255 8.33705 15.8281 8.33705 13.4945C8.33705 11.1609 10.2065 9.26343 12.5056 9.26343C14.8047 9.26343 16.6741 11.1609 16.6741 13.4945C16.6741 15.8281 14.7991 17.7255 12.5056 17.7255ZM20.6752 6.72026C20.6752 7.56421 20.0056 8.23823 19.1797 8.23823C18.3482 8.23823 17.6842 7.55855 17.6842 6.72026C17.6842 5.88198 18.3538 5.20229 19.1797 5.20229C20.0056 5.20229 20.6752 5.88198 20.6752 6.72026ZM24.9219 8.26089C24.827 6.22749 24.3694 4.42632 22.9018 2.94233C21.4397 1.45835 19.6652 0.993896 17.6618 0.891943C15.5971 0.772998 9.40848 0.772998 7.34375 0.891943C5.34598 0.988232 3.57143 1.45269 2.1038 2.93667C0.636161 4.42065 0.184152 6.22183 0.0837059 8.25522C-0.0334816 10.3509 -0.0334816 16.6324 0.0837059 18.7281C0.178572 20.7615 0.636161 22.5626 2.1038 24.0466C3.57143 25.5306 5.3404 25.9951 7.34375 26.097C9.40848 26.216 15.5971 26.216 17.6618 26.097C19.6652 26.0007 21.4397 25.5363 22.9018 24.0466C24.3638 22.5626 24.8214 20.7615 24.9219 18.7281C25.0391 16.6324 25.0391 10.3566 24.9219 8.26089ZM22.2545 20.9767C21.8192 22.0869 20.9766 22.9421 19.8772 23.3896C18.231 24.0523 14.3248 23.8994 12.5056 23.8994C10.6864 23.8994 6.77455 24.0466 5.13393 23.3896C4.04018 22.9478 3.19755 22.0925 2.7567 20.9767C2.1038 19.3058 2.25447 15.341 2.25447 13.4945C2.25447 11.648 2.10938 7.67749 2.7567 6.01226C3.19197 4.9021 4.0346 4.04683 5.13393 3.59937C6.78013 2.93667 10.6864 3.0896 12.5056 3.0896C14.3248 3.0896 18.2366 2.94233 19.8772 3.59937C20.971 4.04116 21.8136 4.89644 22.2545 6.01226C22.9074 7.68315 22.7567 11.648 22.7567 13.4945C22.7567 15.341 22.9074 19.3115 22.2545 20.9767Z" fill="white"/>
</svg>
