<svg width="14" height="13" viewBox="0 0 14 13" fill="none" xmlns="http://www.w3.org/2000/svg">
<path d="M0 0.609375C0 0.27168 0.260069 0 0.583333 0H1.68924C2.22396 0 2.69792 0.325 2.9191 0.8125H12.9087C13.5479 0.8125 14.0146 1.44727 13.8469 2.09219L12.8503 5.95918C12.6438 6.75645 11.951 7.3125 11.1611 7.3125H4.14896L4.28021 8.03613C4.33368 8.32305 4.57431 8.53125 4.85382 8.53125H11.8611C12.1844 8.53125 12.4444 8.80293 12.4444 9.14062C12.4444 9.47832 12.1844 9.75 11.8611 9.75H4.85382C4.01285 9.75 3.29097 9.12539 3.13542 8.26465L1.88125 1.38379C1.86424 1.2873 1.78403 1.21875 1.68924 1.21875H0.583333C0.260069 1.21875 0 0.94707 0 0.609375ZM3.11111 11.7812C3.11111 11.6212 3.14129 11.4627 3.19992 11.3149C3.25855 11.167 3.34448 11.0326 3.45282 10.9195C3.56115 10.8063 3.68977 10.7165 3.83131 10.6553C3.97286 10.594 4.12457 10.5625 4.27778 10.5625C4.43099 10.5625 4.5827 10.594 4.72424 10.6553C4.86579 10.7165 4.9944 10.8063 5.10274 10.9195C5.21107 11.0326 5.29701 11.167 5.35564 11.3149C5.41427 11.4627 5.44444 11.6212 5.44444 11.7812C5.44444 11.9413 5.41427 12.0998 5.35564 12.2476C5.29701 12.3955 5.21107 12.5299 5.10274 12.643C4.9944 12.7562 4.86579 12.846 4.72424 12.9072C4.5827 12.9685 4.43099 13 4.27778 13C4.12457 13 3.97286 12.9685 3.83131 12.9072C3.68977 12.846 3.56115 12.7562 3.45282 12.643C3.34448 12.5299 3.25855 12.3955 3.19992 12.2476C3.14129 12.0998 3.11111 11.9413 3.11111 11.7812ZM11.2778 10.5625C11.5872 10.5625 11.8839 10.6909 12.1027 10.9195C12.3215 11.148 12.4444 11.458 12.4444 11.7812C12.4444 12.1045 12.3215 12.4145 12.1027 12.643C11.8839 12.8716 11.5872 13 11.2778 13C10.9684 13 10.6716 12.8716 10.4528 12.643C10.234 12.4145 10.1111 12.1045 10.1111 11.7812C10.1111 11.458 10.234 11.148 10.4528 10.9195C10.6716 10.6909 10.9684 10.5625 11.2778 10.5625Z" fill="#665C5C"/>
</svg>
