<svg width="25" height="27" viewBox="0 0 25 27" fill="none" xmlns="http://www.w3.org/2000/svg">
<path d="M12.5056 6.98633C8.95651 6.98633 6.09378 9.89199 6.09378 13.4943C6.09378 17.0967 8.95651 20.0023 12.5056 20.0023C16.0547 20.0023 18.9174 17.0967 18.9174 13.4943C18.9174 9.89199 16.0547 6.98633 12.5056 6.98633ZM12.5056 17.7254C10.2121 17.7254 8.33709 15.8279 8.33709 13.4943C8.33709 11.1607 10.2065 9.26328 12.5056 9.26328C14.8047 9.26328 16.6741 11.1607 16.6741 13.4943C16.6741 15.8279 14.7991 17.7254 12.5056 17.7254ZM20.6753 6.72012C20.6753 7.56406 20.0056 8.23809 19.1797 8.23809C18.3483 8.23809 17.6842 7.5584 17.6842 6.72012C17.6842 5.88184 18.3538 5.20215 19.1797 5.20215C20.0056 5.20215 20.6753 5.88184 20.6753 6.72012ZM24.9219 8.26074C24.827 6.22735 24.3695 4.42617 22.9018 2.94219C21.4398 1.4582 19.6652 0.993752 17.6619 0.891798C15.5971 0.772853 9.40852 0.772853 7.34379 0.891798C5.34602 0.988087 3.57146 1.45254 2.10383 2.93653C0.636196 4.42051 0.184187 6.22168 0.0837402 8.25508C-0.0334473 10.3508 -0.0334473 16.6322 0.0837402 18.7279C0.178606 20.7613 0.636196 22.5625 2.10383 24.0465C3.57146 25.5305 5.34044 25.9949 7.34379 26.0969C9.40852 26.2158 15.5971 26.2158 17.6619 26.0969C19.6652 26.0006 21.4398 25.5361 22.9018 24.0465C24.3639 22.5625 24.8215 20.7613 24.9219 18.7279C25.0391 16.6322 25.0391 10.3564 24.9219 8.26074ZM22.2545 20.9766C21.8192 22.0867 20.9766 22.942 19.8773 23.3895C18.2311 24.0522 14.3248 23.8992 12.5056 23.8992C10.6864 23.8992 6.77459 24.0465 5.13396 23.3895C4.04021 22.9477 3.19758 22.0924 2.75673 20.9766C2.10383 19.3057 2.2545 15.3408 2.2545 13.4943C2.2545 11.6479 2.10941 7.67735 2.75673 6.01211C3.192 4.90195 4.03463 4.04668 5.13396 3.59922C6.78017 2.93652 10.6864 3.08945 12.5056 3.08945C14.3248 3.08945 18.2366 2.94219 19.8773 3.59922C20.971 4.04102 21.8137 4.89629 22.2545 6.01211C22.9074 7.68301 22.7567 11.6479 22.7567 13.4943C22.7567 15.3408 22.9074 19.3113 22.2545 20.9766Z" fill="#665C5C"/>
</svg>
