<svg width="348" height="82" viewBox="0 0 348 82" fill="none" xmlns="http://www.w3.org/2000/svg">
<g clip-path="url(#clip0_32_443)">
<path d="M78.0783 39.8697C81.7322 35.3253 82.7858 28.9453 80.2079 23.2816C77.6524 17.618 72.2051 14.1705 66.3991 13.9019C65.6593 8.26061 61.8933 3.20137 56.1994 1.05231C50.5279 -1.09674 44.3857 0.201645 40.0816 3.89534C35.531 0.335961 29.2319 -0.649024 23.6276 1.8806C17.9786 4.4326 14.5264 9.85002 14.2349 15.648C8.47381 16.2972 3.25067 20.058 1.05381 25.856C-1.12063 31.6092 0.246803 37.8325 4.08009 42.1307C0.650308 46.6526 -0.268785 52.8536 2.21949 58.3829C4.73018 63.9346 9.99816 67.3597 15.692 67.7403C16.3421 73.5159 20.1082 78.7318 25.9366 80.9256C31.765 83.1195 38.0865 81.7092 42.3906 77.7692C46.9188 81.3062 53.2179 82.2688 58.8222 79.7392C64.3816 77.2319 67.8113 71.9488 68.2148 66.2628C73.8639 65.5241 78.9525 61.7856 81.1046 56.0772C83.279 50.3239 81.9116 44.123 78.1007 39.8249L78.0783 39.8697ZM47.1205 53.9281C39.8799 57.1965 31.3615 53.9729 28.0886 46.7422C24.8157 39.5115 28.0438 31.0048 35.2844 27.7365C42.5251 24.4681 51.0435 27.6917 54.3164 34.9224C57.5892 42.153 54.3612 50.6597 47.1205 53.9281Z" fill="white"/>
<path d="M129.996 19.3862C136.295 19.3862 140.106 22.0725 140.106 26.6168C140.106 31.6537 134.748 37.3845 128.449 41.4812C131.811 42.7348 133.717 45.0853 133.717 48.4208C133.717 56.9051 120.76 65.4566 107.982 65.4566C103.342 65.4566 100.069 63.5762 100.069 60.7779C100.069 57.129 103.97 54.1069 109.305 52.8533C110.179 51.1743 111.3 49.1372 112.555 46.921C110.874 46.7195 109.865 46.0927 109.686 44.8838C109.394 42.8915 112.107 41.5707 116.142 40.8767C120.401 33.9818 125.31 26.9079 128.382 24.3559C128.539 24.2215 128.74 24.1544 128.942 24.1544C129.39 24.1544 129.771 24.5349 129.771 24.9827C129.771 25.2513 129.637 25.4752 129.48 25.6319C126.678 27.96 122.284 34.2057 118.272 40.5857C121.365 40.2947 124.122 40.3842 126.386 40.8767C132.775 37.0711 138.424 31.3851 138.424 26.5945C138.424 23.0799 135.398 21.0427 129.996 21.0427C119.93 21.0427 109.932 29.0121 104.709 36.0637C103.813 37.9889 103.073 40.2499 102.019 40.5186C101.638 40.6081 101.055 40.2499 100.943 39.7798C100.854 39.3321 101.011 38.8844 101.235 38.3919C101.683 37.4293 102.4 36.4667 103.633 34.743C108.969 27.3332 119.549 19.3638 129.973 19.3638L129.996 19.3862ZM132.036 48.3984C132.036 45.0405 129.615 43.3616 126.543 42.6228C122.665 44.8838 118.63 46.4509 115.38 46.809C115.066 46.8314 114.775 46.8762 114.483 46.8762C113.317 48.9133 112.264 50.8161 111.39 52.4503C113.228 52.1817 115.156 52.1593 117.128 52.3608C117.577 52.3832 117.913 52.7413 117.913 53.2114C117.913 53.6815 117.532 54.0397 117.083 54.0397H116.994C114.73 53.8159 112.51 53.9054 110.47 54.3307C109.888 55.45 109.462 56.3902 109.238 57.0171C109.103 57.3752 108.789 57.5991 108.431 57.5991C107.982 57.5991 107.601 57.2185 107.601 56.7484C107.601 56.6589 107.624 56.547 107.668 56.4574C107.803 56.0321 108.049 55.4948 108.341 54.8456C104.508 56.0321 101.795 58.2707 101.795 60.7555C101.795 62.4569 104.351 63.7552 108.027 63.7552C119.841 63.7552 132.08 55.853 132.08 48.3984H132.036ZM114.954 42.8243C112.69 43.384 111.278 44.0779 111.367 44.5928C111.39 44.9734 112.152 45.242 113.497 45.242C113.99 44.4585 114.461 43.6302 114.954 42.8243ZM123.965 42.2199C121.97 42.0632 119.863 42.1304 118.159 42.3094C117.801 42.3318 117.487 42.3766 117.151 42.4438C116.59 43.3392 116.052 44.2123 115.537 45.1301C118.047 44.7719 121.029 43.7421 123.965 42.2199Z" fill="white"/>
<path d="M156.761 21.6025C157.187 21.2219 157.658 20.998 158.129 20.998C158.622 20.998 159.026 21.3786 159.026 21.8487C159.026 22.8561 157.187 24.0649 155.641 25.2962C148.445 33.3999 138.267 50.8386 138.267 55.6068C138.267 56.9052 138.828 57.4649 140.016 57.4649C146.225 57.4649 161.11 44.2795 163.128 42.0185C163.262 41.817 163.486 41.7275 163.733 41.7275C164.181 41.7275 164.585 42.1081 164.585 42.5782C164.585 42.802 164.518 43.0035 164.361 43.1378C162.298 45.466 146.853 59.1662 140.016 59.1662C137.886 59.1662 136.586 57.8454 136.586 55.6292C136.586 50.4133 146.92 32.7059 154.251 24.356C155.192 23.2366 156.022 22.3636 156.761 21.6472V21.6025Z" fill="white"/>
<path d="M159.227 50.6593C159.227 47.7491 160.841 44.3464 163.195 42.1078C163.576 41.7272 163.912 41.6601 164.069 41.8392L164.293 42.1078C164.966 39.6453 166.849 37.9888 169.18 37.9888C171.288 37.9888 172.565 39.3991 172.565 41.7048C172.565 44.1225 171.265 47.0327 169.472 49.4056C169.853 49.4728 170.279 49.4952 170.727 49.4952C177.206 49.4952 182.586 43.6301 183.729 42.0406C183.886 41.8392 184.11 41.7272 184.401 41.7272C184.85 41.7272 185.231 42.1078 185.231 42.5779C185.231 42.7794 185.164 42.9361 185.074 43.0928C183.841 44.7046 177.945 51.1965 170.705 51.1965C169.808 51.1965 169.001 51.0622 168.261 50.8383C166.445 52.7635 164.316 54.1291 162.523 54.1291C160.483 54.1291 159.227 52.8083 159.227 50.6816V50.6593ZM166.692 50.0548C164.988 48.8908 164.002 46.8536 164.002 44.2569C164.002 44.0554 164.002 43.8763 164.024 43.6748C162.164 45.5776 160.886 48.3535 160.886 50.6593C160.886 51.8905 161.402 52.4278 162.5 52.4278C163.755 52.4278 165.28 51.4652 166.67 50.0325L166.692 50.0548ZM170.884 41.7048C170.884 40.3169 170.301 39.6677 169.18 39.6677C167.185 39.6677 165.683 41.6377 165.683 44.2569C165.683 46.3835 166.423 47.9282 167.813 48.7788C169.561 46.6298 170.884 43.8539 170.884 41.7272V41.7048Z" fill="white"/>
<path d="M180.053 50.6593C180.053 47.7491 181.667 44.3464 184.02 42.1078C184.401 41.7272 184.738 41.6601 184.895 41.8392L185.119 42.1078C185.791 39.6453 187.674 37.9888 189.983 37.9888C192.09 37.9888 193.368 39.3991 193.368 41.7048C193.368 44.1225 192.068 47.0327 190.275 49.4056C190.656 49.4728 191.082 49.4952 191.53 49.4952C198.031 49.4952 203.389 43.6301 204.532 42.0406C204.689 41.8392 204.913 41.7272 205.204 41.7272C205.653 41.7272 206.034 42.1078 206.034 42.5779C206.034 42.7794 205.966 42.9361 205.877 43.0928C204.644 44.7046 198.748 51.1965 191.508 51.1965C190.611 51.1965 189.804 51.0622 189.064 50.8383C187.248 52.7635 185.119 54.1291 183.325 54.1291C181.285 54.1291 180.03 52.8083 180.03 50.6816L180.053 50.6593ZM187.517 50.0548C185.814 48.8908 184.827 46.8536 184.827 44.2569C184.827 44.0554 184.827 43.8763 184.85 43.6748C182.967 45.5776 181.711 48.3535 181.711 50.6593C181.711 51.8905 182.227 52.4278 183.325 52.4278C184.581 52.4278 186.105 51.4652 187.495 50.0325L187.517 50.0548ZM191.709 41.7048C191.709 40.3169 191.127 39.6677 190.006 39.6677C188.011 39.6677 186.509 41.6377 186.509 44.2569C186.509 46.3835 187.248 47.9282 188.638 48.7788C190.387 46.6298 191.709 43.8539 191.709 41.7272V41.7048Z" fill="white"/>
<path d="M198.636 52.9876C198.636 51.2862 204.42 41.7274 208.298 36.892C208.432 36.6905 208.679 36.5786 208.948 36.5786C209.396 36.5786 209.8 36.9592 209.8 37.4293C209.8 37.6308 209.733 37.8098 209.598 37.9442C207.625 40.429 204.756 44.8391 202.716 48.2641C202.2 49.1148 202.492 49.5177 203.456 48.5551C211.01 41.011 214.597 38.0113 216.749 38.0113C217.803 38.0113 218.453 38.7948 218.453 39.8694C218.453 41.3468 217.153 44.2794 216.032 46.809C215.606 47.7045 215.314 48.4208 215.068 49.0029C214.687 49.8983 214.933 50.1893 215.74 49.5177C216.615 48.779 217.803 47.7045 219.349 46.227C223.99 41.9065 225.85 40.4514 227.128 40.4514C228.316 40.4514 228.966 41.2349 228.966 42.4885C228.966 43.8317 228.114 46.0703 227.419 47.9283C226.612 50.055 226.388 50.8385 226.388 51.1967C226.388 51.7787 226.456 51.8459 227.106 51.8459C230.782 51.8459 236.633 46.8538 242.125 41.9736C242.259 41.8393 242.439 41.7498 242.685 41.7498C243.134 41.7498 243.537 42.1303 243.537 42.6005C243.537 42.8691 243.448 43.0929 243.246 43.2049C237.754 48.1298 231.455 53.5248 227.128 53.5248C225.536 53.5248 224.729 52.7413 224.729 51.1967C224.729 50.3908 225.312 48.8685 225.895 47.3687C226.568 45.5106 227.307 43.5631 227.307 42.5109C227.307 42.3094 227.285 42.1527 227.016 42.1527C226.411 42.1527 224.729 43.5407 220.537 47.4806C216.346 51.4205 214.799 52.6294 213.7 52.6294C213.028 52.6294 212.602 52.0697 212.602 51.3982C212.602 50.4356 213.566 48.2641 214.507 46.1374C216.211 42.3318 216.794 40.72 216.794 40.0037C216.794 39.847 216.794 39.6903 216.502 39.6903C215.337 39.6903 211.795 42.6228 204.644 49.7416C202.133 52.2264 200.452 54.0397 199.6 54.0397C199.017 54.0397 198.636 53.592 198.636 53.01V52.9876Z" fill="white"/>
<path d="M266.604 42.8244C266.223 42.6901 265.887 42.108 266.021 41.6379C266.156 41.1902 266.47 40.832 266.918 40.541C267.815 39.959 268.891 39.3769 270.639 38.3248C275.481 34.2058 278.508 29.3256 278.508 25.3409C278.508 22.6546 276.692 21.0876 273.598 21.0876C258.982 21.0876 243.044 43.6975 243.044 54.6442C243.044 59.0543 245.039 61.1585 249.186 61.1585C260.865 61.1585 277.656 44.1676 279.987 41.6827C280.144 41.526 280.368 41.4141 280.592 41.4141C281.041 41.4141 281.444 41.7946 281.444 42.2424C281.444 42.4662 281.355 42.6677 281.22 42.8244C278.889 45.3092 261.583 62.8151 249.186 62.8151C244.075 62.8151 241.363 59.9497 241.363 54.6218C241.363 43.1378 258.131 19.3862 273.598 19.3862C277.611 19.3862 280.189 21.7144 280.189 25.3185C280.189 30.0196 276.692 35.5489 271.155 40.0485C269.384 41.3917 267.568 43.1378 266.604 42.8244Z" fill="white"/>
<path d="M274.607 53.7936C274.383 54.2861 274.473 54.5995 275.033 53.9279C275.235 53.704 276.087 52.6295 276.557 52.0475C277.88 50.4357 279.337 48.5776 280.861 46.7867C285.479 41.4365 288.483 38.974 290.613 38.974C292.159 38.974 292.944 40.0709 292.944 41.8842C292.944 43.1378 292.585 44.7496 292.272 46.2047C291.98 47.5479 291.711 48.7567 291.711 49.585C291.711 51.2639 292.361 51.9131 293.751 51.9131C296.822 51.9131 303.435 46.8091 308.927 41.9514C309.062 41.817 309.241 41.7275 309.488 41.7275C309.936 41.7275 310.317 42.1081 310.317 42.5782C310.317 42.8468 310.228 43.0707 310.026 43.1826C302.449 49.9656 296.62 53.5921 293.751 53.5921C291.465 53.5921 290.03 52.2042 290.03 49.585C290.03 48.5552 290.321 47.1673 290.635 45.8465C290.927 44.3914 291.24 42.9811 291.24 41.8842C291.24 40.8768 291.039 40.653 290.59 40.653C289.111 40.653 286.331 43.0035 282.139 47.8837C280.66 49.6298 279.18 51.4654 277.88 53.0996C275.324 56.256 273.71 58.4499 272.724 58.4499C272.074 58.4499 271.648 57.935 271.648 57.2634C271.648 53.4354 284.784 32.9746 292.406 24.3112C293.348 23.1919 294.177 22.3188 294.917 21.6025C295.343 21.2219 295.791 20.998 296.217 20.998C296.733 20.998 297.181 21.3786 297.181 21.8487C297.181 22.8561 295.41 24.0649 293.863 25.2962C287.542 32.3254 277.364 47.906 274.629 53.7936H274.607Z" fill="white"/>
<path d="M306.103 49.5851C306.103 46.3615 309.533 40.6754 311.617 38.0786C311.752 37.8772 311.998 37.7652 312.267 37.7652C312.716 37.7652 313.119 38.1458 313.119 38.6159C313.119 38.8174 313.052 38.9965 312.918 39.1308C310.183 42.5782 307.784 47.4136 307.784 49.6074C307.784 51.2864 308.434 51.9356 310.138 51.9356C313.635 51.9356 319.239 48.5105 326.614 41.9738C326.749 41.8395 326.928 41.7499 327.152 41.7499C327.601 41.7499 328.004 42.1305 328.004 42.6006C328.004 42.8692 327.914 43.0931 327.713 43.205C320.024 50.0999 314.15 53.6145 310.138 53.6145C307.515 53.6145 306.103 52.2266 306.103 49.6074V49.5851ZM314.599 33.6462C314.599 33.4447 314.688 33.2656 314.801 33.1313C315.114 32.706 315.697 32.1016 316.056 31.5419C316.19 31.3404 316.437 31.2285 316.706 31.2285C317.154 31.2285 317.558 31.6091 317.558 32.0568C317.558 32.2583 317.491 32.4374 317.356 32.6164C316.975 33.1089 316.459 33.7358 316.123 34.1611C315.966 34.3626 315.697 34.4745 315.451 34.4745C315.002 34.4745 314.599 34.0939 314.599 33.6462Z" fill="white"/>
<path d="M323.633 49.227C323.633 44.302 329.282 37.9668 333.765 37.9668C335.581 37.9668 336.702 38.9742 336.702 40.586C336.702 42.1978 335.626 44.1006 334.191 45.0632C334.057 45.1303 333.9 45.1975 333.743 45.1975C333.295 45.1975 332.891 44.8169 332.891 44.3468C332.891 44.0558 333.048 43.7872 333.272 43.6305C334.236 42.9813 335.021 41.6605 335.021 40.5636C335.021 39.9144 334.662 39.6234 333.765 39.6234C330.223 39.6234 325.314 45.1751 325.314 49.2046C325.314 51.7566 326.794 53.1445 329.439 53.1445C333.788 53.1445 342.194 49.8314 346.453 43.3394C346.61 43.1156 346.879 42.9589 347.171 42.9589C347.619 42.9589 348 43.3394 348 43.7872C348 43.9439 347.933 44.1006 347.865 44.2797C343.292 51.1746 334.102 54.8235 329.439 54.8235C325.852 54.8235 323.633 52.6744 323.633 49.2046V49.227Z" fill="white"/>
</g>
<defs>
<clipPath id="clip0_32_443">
<rect width="348" height="82" fill="white"/>
</clipPath>
</defs>
</svg>
