<svg width="156" height="37" viewBox="0 0 156 37" fill="none" xmlns="http://www.w3.org/2000/svg">
<g clip-path="url(#clip0_87_95)">
<path d="M34.83 17.81C36.46 15.78 36.93 12.93 35.78 10.4C34.64 7.86999 32.21 6.32999 29.62 6.20999C29.29 3.68999 27.61 1.42999 25.07 0.469985C22.54 -0.490015 19.8 0.0899855 17.88 1.73999C15.85 0.149985 13.04 -0.290015 10.54 0.839985C8.01999 1.97999 6.47999 4.39999 6.34999 6.98998C3.77999 7.27998 1.44999 8.95999 0.469994 11.55C-0.500007 14.12 0.109993 16.9 1.81999 18.82C0.289994 20.84 -0.120007 23.61 0.989994 26.08C2.10999 28.56 4.45999 30.09 6.99999 30.26C7.28999 32.84 8.96999 35.17 11.57 36.15C14.17 37.13 16.99 36.5 18.91 34.74C20.93 36.32 23.74 36.75 26.24 35.62C28.72 34.5 30.25 32.14 30.43 29.6C32.95 29.27 35.22 27.6 36.18 25.05C37.15 22.48 36.54 19.71 34.84 17.79L34.83 17.81ZM21.02 24.09C17.79 25.55 13.99 24.11 12.53 20.88C11.07 17.65 12.51 13.85 15.74 12.39C18.97 10.93 22.77 12.37 24.23 15.6C25.69 18.83 24.25 22.63 21.02 24.09Z" fill="#665C5C"/>
<path d="M57.99 8.66002C60.8 8.66002 62.5 9.86003 62.5 11.89C62.5 14.14 60.11 16.7 57.3 18.53C58.8 19.09 59.65 20.14 59.65 21.63C59.65 25.42 53.87 29.24 48.17 29.24C46.1 29.24 44.64 28.4 44.64 27.15C44.64 25.52 46.38 24.17 48.76 23.61C49.15 22.86 49.65 21.95 50.21 20.96C49.46 20.87 49.01 20.59 48.93 20.05C48.8 19.16 50.01 18.57 51.81 18.26C53.71 15.18 55.9 12.02 57.27 10.88C57.34 10.82 57.43 10.79 57.52 10.79C57.72 10.79 57.89 10.96 57.89 11.16C57.89 11.28 57.83 11.38 57.76 11.45C56.51 12.49 54.55 15.28 52.76 18.13C54.14 18 55.37 18.04 56.38 18.26C59.23 16.56 61.75 14.02 61.75 11.88C61.75 10.31 60.4 9.40002 57.99 9.40002C53.5 9.40002 49.04 12.96 46.71 16.11C46.31 16.97 45.98 17.98 45.51 18.1C45.34 18.14 45.08 17.98 45.03 17.77C44.99 17.57 45.06 17.37 45.16 17.15C45.36 16.72 45.68 16.29 46.23 15.52C48.61 12.21 53.33 8.65002 57.98 8.65002L57.99 8.66002ZM58.9 21.62C58.9 20.12 57.82 19.37 56.45 19.04C54.72 20.05 52.92 20.75 51.47 20.91C51.33 20.92 51.2 20.94 51.07 20.94C50.55 21.85 50.08 22.7 49.69 23.43C50.51 23.31 51.37 23.3 52.25 23.39C52.45 23.4 52.6 23.56 52.6 23.77C52.6 23.98 52.43 24.14 52.23 24.14H52.19C51.18 24.04 50.19 24.08 49.28 24.27C49.02 24.77 48.83 25.19 48.73 25.47C48.67 25.63 48.53 25.73 48.37 25.73C48.17 25.73 48 25.56 48 25.35C48 25.31 48.01 25.26 48.03 25.22C48.09 25.03 48.2 24.79 48.33 24.5C46.62 25.03 45.41 26.03 45.41 27.14C45.41 27.9 46.55 28.48 48.19 28.48C53.46 28.48 58.92 24.95 58.92 21.62H58.9ZM51.28 19.13C50.27 19.38 49.64 19.69 49.68 19.92C49.69 20.09 50.03 20.21 50.63 20.21C50.85 19.86 51.06 19.49 51.28 19.13ZM55.3 18.86C54.41 18.79 53.47 18.82 52.71 18.9C52.55 18.91 52.41 18.93 52.26 18.96C52.01 19.36 51.77 19.75 51.54 20.16C52.66 20 53.99 19.54 55.3 18.86Z" fill="#665C5C"/>
<path d="M69.93 9.65C70.12 9.48 70.33 9.38 70.54 9.38C70.76 9.38 70.94 9.55001 70.94 9.76C70.94 10.21 70.12 10.75 69.43 11.3C66.22 14.92 61.68 22.71 61.68 24.84C61.68 25.42 61.93 25.67 62.46 25.67C65.23 25.67 71.87 19.78 72.77 18.77C72.83 18.68 72.93 18.64 73.04 18.64C73.24 18.64 73.42 18.81 73.42 19.02C73.42 19.12 73.39 19.21 73.32 19.27C72.4 20.31 65.51 26.43 62.46 26.43C61.51 26.43 60.93 25.84 60.93 24.85C60.93 22.52 65.54 14.61 68.81 10.88C69.23 10.38 69.6 9.99 69.93 9.67V9.65Z" fill="#665C5C"/>
<path d="M71.03 22.63C71.03 21.33 71.75 19.81 72.8 18.81C72.97 18.64 73.12 18.61 73.19 18.69L73.29 18.81C73.59 17.71 74.43 16.97 75.47 16.97C76.41 16.97 76.98 17.6 76.98 18.63C76.98 19.71 76.4 21.01 75.6 22.07C75.77 22.1 75.96 22.11 76.16 22.11C79.05 22.11 81.45 19.49 81.96 18.78C82.03 18.69 82.13 18.64 82.26 18.64C82.46 18.64 82.63 18.81 82.63 19.02C82.63 19.11 82.6 19.18 82.56 19.25C82.01 19.97 79.38 22.87 76.15 22.87C75.75 22.87 75.39 22.81 75.06 22.71C74.25 23.57 73.3 24.18 72.5 24.18C71.59 24.18 71.03 23.59 71.03 22.64V22.63ZM74.36 22.36C73.6 21.84 73.16 20.93 73.16 19.77C73.16 19.68 73.16 19.6 73.17 19.51C72.34 20.36 71.77 21.6 71.77 22.63C71.77 23.18 72 23.42 72.49 23.42C73.05 23.42 73.73 22.99 74.35 22.35L74.36 22.36ZM76.23 18.63C76.23 18.01 75.97 17.72 75.47 17.72C74.58 17.72 73.91 18.6 73.91 19.77C73.91 20.72 74.24 21.41 74.86 21.79C75.64 20.83 76.23 19.59 76.23 18.64V18.63Z" fill="#665C5C"/>
<path d="M80.32 22.63C80.32 21.33 81.04 19.81 82.09 18.81C82.26 18.64 82.41 18.61 82.48 18.69L82.58 18.81C82.88 17.71 83.72 16.97 84.75 16.97C85.69 16.97 86.26 17.6 86.26 18.63C86.26 19.71 85.68 21.01 84.88 22.07C85.05 22.1 85.24 22.11 85.44 22.11C88.34 22.11 90.73 19.49 91.24 18.78C91.31 18.69 91.41 18.64 91.54 18.64C91.74 18.64 91.91 18.81 91.91 19.02C91.91 19.11 91.88 19.18 91.84 19.25C91.29 19.97 88.66 22.87 85.43 22.87C85.03 22.87 84.67 22.81 84.34 22.71C83.53 23.57 82.58 24.18 81.78 24.18C80.87 24.18 80.31 23.59 80.31 22.64L80.32 22.63ZM83.65 22.36C82.89 21.84 82.45 20.93 82.45 19.77C82.45 19.68 82.45 19.6 82.46 19.51C81.62 20.36 81.06 21.6 81.06 22.63C81.06 23.18 81.29 23.42 81.78 23.42C82.34 23.42 83.02 22.99 83.64 22.35L83.65 22.36ZM85.52 18.63C85.52 18.01 85.26 17.72 84.76 17.72C83.87 17.72 83.2 18.6 83.2 19.77C83.2 20.72 83.53 21.41 84.15 21.79C84.93 20.83 85.52 19.59 85.52 18.64V18.63Z" fill="#665C5C"/>
<path d="M88.61 23.67C88.61 22.91 91.19 18.64 92.92 16.48C92.98 16.39 93.09 16.34 93.21 16.34C93.41 16.34 93.59 16.51 93.59 16.72C93.59 16.81 93.56 16.89 93.5 16.95C92.62 18.06 91.34 20.03 90.43 21.56C90.2 21.94 90.33 22.12 90.76 21.69C94.13 18.32 95.73 16.98 96.69 16.98C97.16 16.98 97.45 17.33 97.45 17.81C97.45 18.47 96.87 19.78 96.37 20.91C96.18 21.31 96.05 21.63 95.94 21.89C95.77 22.29 95.88 22.42 96.24 22.12C96.63 21.79 97.16 21.31 97.85 20.65C99.92 18.72 100.75 18.07 101.32 18.07C101.85 18.07 102.14 18.42 102.14 18.98C102.14 19.58 101.76 20.58 101.45 21.41C101.09 22.36 100.99 22.71 100.99 22.87C100.99 23.13 101.02 23.16 101.31 23.16C102.95 23.16 105.56 20.93 108.01 18.75C108.07 18.69 108.15 18.65 108.26 18.65C108.46 18.65 108.64 18.82 108.64 19.03C108.64 19.15 108.6 19.25 108.51 19.3C106.06 21.5 103.25 23.91 101.32 23.91C100.61 23.91 100.25 23.56 100.25 22.87C100.25 22.51 100.51 21.83 100.77 21.16C101.07 20.33 101.4 19.46 101.4 18.99C101.4 18.9 101.39 18.83 101.27 18.83C101 18.83 100.25 19.45 98.38 21.21C96.51 22.97 95.82 23.51 95.33 23.51C95.03 23.51 94.84 23.26 94.84 22.96C94.84 22.53 95.27 21.56 95.69 20.61C96.45 18.91 96.71 18.19 96.71 17.87C96.71 17.8 96.71 17.73 96.58 17.73C96.06 17.73 94.48 19.04 91.29 22.22C90.17 23.33 89.42 24.14 89.04 24.14C88.78 24.14 88.61 23.94 88.61 23.68V23.67Z" fill="#665C5C"/>
<path d="M118.93 19.13C118.76 19.07 118.61 18.81 118.67 18.6C118.73 18.4 118.87 18.24 119.07 18.11C119.47 17.85 119.95 17.59 120.73 17.12C122.89 15.28 124.24 13.1 124.24 11.32C124.24 10.12 123.43 9.42003 122.05 9.42003C115.53 9.42003 108.42 19.52 108.42 24.41C108.42 26.38 109.31 27.32 111.16 27.32C116.37 27.32 123.86 19.73 124.9 18.62C124.97 18.55 125.07 18.5 125.17 18.5C125.37 18.5 125.55 18.67 125.55 18.87C125.55 18.97 125.51 19.06 125.45 19.13C124.41 20.24 116.69 28.06 111.16 28.06C108.88 28.06 107.67 26.78 107.67 24.4C107.67 19.27 115.15 8.66003 122.05 8.66003C123.84 8.66003 124.99 9.70003 124.99 11.31C124.99 13.41 123.43 15.88 120.96 17.89C120.17 18.49 119.36 19.27 118.93 19.13Z" fill="#665C5C"/>
<path d="M122.5 24.03C122.4 24.25 122.44 24.39 122.69 24.09C122.78 23.99 123.16 23.51 123.37 23.25C123.96 22.53 124.61 21.7 125.29 20.9C127.35 18.51 128.69 17.41 129.64 17.41C130.33 17.41 130.68 17.9 130.68 18.71C130.68 19.27 130.52 19.99 130.38 20.64C130.25 21.24 130.13 21.78 130.13 22.15C130.13 22.9 130.42 23.19 131.04 23.19C132.41 23.19 135.36 20.91 137.81 18.74C137.87 18.68 137.95 18.64 138.06 18.64C138.26 18.64 138.43 18.81 138.43 19.02C138.43 19.14 138.39 19.24 138.3 19.29C134.92 22.32 132.32 23.94 131.04 23.94C130.02 23.94 129.38 23.32 129.38 22.15C129.38 21.69 129.51 21.07 129.65 20.48C129.78 19.83 129.92 19.2 129.92 18.71C129.92 18.26 129.83 18.16 129.63 18.16C128.97 18.16 127.73 19.21 125.86 21.39C125.2 22.17 124.54 22.99 123.96 23.72C122.82 25.13 122.1 26.11 121.66 26.11C121.37 26.11 121.18 25.88 121.18 25.58C121.18 23.87 127.04 14.73 130.44 10.86C130.86 10.36 131.23 9.97 131.56 9.65C131.75 9.48 131.95 9.38 132.14 9.38C132.37 9.38 132.57 9.55001 132.57 9.76C132.57 10.21 131.78 10.75 131.09 11.3C128.27 14.44 123.73 21.4 122.51 24.03H122.5Z" fill="#665C5C"/>
<path d="M136.55 22.15C136.55 20.71 138.08 18.17 139.01 17.01C139.07 16.92 139.18 16.87 139.3 16.87C139.5 16.87 139.68 17.04 139.68 17.25C139.68 17.34 139.65 17.42 139.59 17.48C138.37 19.02 137.3 21.18 137.3 22.16C137.3 22.91 137.59 23.2 138.35 23.2C139.91 23.2 142.41 21.67 145.7 18.75C145.76 18.69 145.84 18.65 145.94 18.65C146.14 18.65 146.32 18.82 146.32 19.03C146.32 19.15 146.28 19.25 146.19 19.3C142.76 22.38 140.14 23.95 138.35 23.95C137.18 23.95 136.55 23.33 136.55 22.16V22.15ZM140.34 15.03C140.34 14.94 140.38 14.86 140.43 14.8C140.57 14.61 140.83 14.34 140.99 14.09C141.05 14 141.16 13.95 141.28 13.95C141.48 13.95 141.66 14.12 141.66 14.32C141.66 14.41 141.63 14.49 141.57 14.57C141.4 14.79 141.17 15.07 141.02 15.26C140.95 15.35 140.83 15.4 140.72 15.4C140.52 15.4 140.34 15.23 140.34 15.03Z" fill="#665C5C"/>
<path d="M144.37 21.99C144.37 19.79 146.89 16.96 148.89 16.96C149.7 16.96 150.2 17.41 150.2 18.13C150.2 18.85 149.72 19.7 149.08 20.13C149.02 20.16 148.95 20.19 148.88 20.19C148.68 20.19 148.5 20.02 148.5 19.81C148.5 19.68 148.57 19.56 148.67 19.49C149.1 19.2 149.45 18.61 149.45 18.12C149.45 17.83 149.29 17.7 148.89 17.7C147.31 17.7 145.12 20.18 145.12 21.98C145.12 23.12 145.78 23.74 146.96 23.74C148.9 23.74 152.65 22.26 154.55 19.36C154.62 19.26 154.74 19.19 154.87 19.19C155.07 19.19 155.24 19.36 155.24 19.56C155.24 19.63 155.21 19.7 155.18 19.78C153.14 22.86 149.04 24.49 146.96 24.49C145.36 24.49 144.37 23.53 144.37 21.98V21.99Z" fill="#665C5C"/>
</g>
<defs>
<clipPath id="clip0_87_95">
<rect width="155.24" height="36.63" fill="white"/>
</clipPath>
</defs>
</svg>
