<svg width="320" height="75" viewBox="0 0 320 75" fill="none" xmlns="http://www.w3.org/2000/svg">
<g clip-path="url(#clip0_22_339)">
<path d="M71.7959 36.466C75.1559 32.3096 76.1247 26.4742 73.7542 21.294C71.4043 16.1138 66.3952 12.9607 61.0564 12.715C60.3762 7.55528 56.9132 2.92793 51.6774 0.962326C46.4622 -1.00328 40.8142 0.184275 36.8565 3.56265C32.672 0.307125 26.8797 -0.593776 21.7263 1.7199C16.5318 4.05405 13.3574 9.00901 13.0894 14.312C7.79179 14.9058 2.98891 18.3456 0.968812 23.6486C-1.03067 28.9107 0.226735 34.6028 3.7516 38.534C0.597774 42.6699 -0.247369 48.3415 2.0407 53.3988C4.34938 58.4767 9.19349 61.6093 14.4293 61.9574C15.027 67.24 18.4901 72.0106 23.8495 74.0172C29.209 76.0237 35.0219 74.7338 38.9796 71.1302C43.1435 74.3653 48.9358 75.2457 54.0891 72.932C59.2012 70.6388 62.355 65.8067 62.7261 60.6061C67.9206 59.9304 72.5998 56.511 74.5787 51.2899C76.5782 46.0278 75.3208 40.3563 71.8165 36.4251L71.7959 36.466ZM43.329 49.3243C36.6709 52.3137 28.8379 49.3653 25.8284 42.7518C22.8188 36.1384 25.7872 28.3579 32.4452 25.3685C39.1033 22.3792 46.9363 25.3276 49.9459 31.941C52.9554 38.5545 49.9871 46.335 43.329 49.3243Z" fill="#665C5C"/>
<path d="M119.536 17.7314C125.329 17.7314 128.833 20.1884 128.833 24.3448C128.833 28.9517 123.906 34.1933 118.114 37.9402C121.206 39.0868 122.958 41.2367 122.958 44.2875C122.958 52.0475 111.044 59.8689 99.2941 59.8689C95.0271 59.8689 92.0176 58.149 92.0176 55.5897C92.0176 52.2522 95.6043 49.4881 100.51 48.3415C101.314 46.8059 102.345 44.9427 103.499 42.9156C101.953 42.7313 101.026 42.1581 100.861 41.0524C100.593 39.2301 103.087 38.0221 106.797 37.3874C110.714 31.0811 115.228 24.611 118.052 22.2768C118.196 22.154 118.382 22.0925 118.567 22.0925C118.98 22.0925 119.33 22.4406 119.33 22.8501C119.33 23.0958 119.206 23.3006 119.062 23.4439C116.485 25.5733 112.445 31.2858 108.756 37.1212C111.6 36.855 114.136 36.9369 116.218 37.3874C122.092 33.9066 127.287 28.706 127.287 24.3243C127.287 21.1097 124.504 19.2465 119.536 19.2465C110.281 19.2465 101.087 26.5356 96.2845 32.9852C95.46 34.7461 94.7798 36.8141 93.8109 37.0598C93.4605 37.1417 92.9246 36.8141 92.8215 36.3841C92.739 35.9746 92.8833 35.5651 93.0895 35.1146C93.5017 34.2342 94.1614 33.3538 95.2951 31.7772C100.201 25 109.93 17.7109 119.516 17.7109L119.536 17.7314ZM121.412 44.267C121.412 41.1957 119.186 39.6601 116.362 38.9844C112.796 41.0524 109.085 42.4857 106.096 42.8133C105.808 42.8337 105.54 42.8747 105.272 42.8747C104.2 44.7379 103.231 46.4783 102.427 47.973C104.118 47.7273 105.89 47.7068 107.704 47.8911C108.117 47.9115 108.426 48.2391 108.426 48.6691C108.426 49.0991 108.075 49.4267 107.663 49.4267H107.581C105.499 49.2219 103.458 49.3038 101.582 49.6929C101.046 50.7166 100.655 51.5766 100.448 52.1499C100.325 52.4775 100.036 52.6822 99.7063 52.6822C99.2941 52.6822 98.9436 52.3341 98.9436 51.9042C98.9436 51.8223 98.9642 51.7199 99.0055 51.638C99.1291 51.249 99.3559 50.7576 99.6239 50.1638C96.099 51.249 93.6048 53.2965 93.6048 55.5692C93.6048 57.1253 95.9547 58.3128 99.3353 58.3128C110.198 58.3128 121.453 51.0852 121.453 44.267H121.412ZM105.705 39.1687C103.623 39.6806 102.324 40.3153 102.407 40.7862C102.427 41.1343 103.128 41.38 104.365 41.38C104.818 40.6634 105.251 39.9058 105.705 39.1687ZM113.991 38.6159C112.157 38.4725 110.219 38.534 108.652 38.6978C108.323 38.7182 108.034 38.7592 107.725 38.8206C107.21 39.6396 106.715 40.4382 106.241 41.2776C108.549 40.95 111.291 40.0082 113.991 38.6159Z" fill="#665C5C"/>
<path d="M144.149 19.7584C144.54 19.4103 144.973 19.2056 145.406 19.2056C145.859 19.2056 146.231 19.5536 146.231 19.9836C146.231 20.905 144.54 22.0106 143.118 23.1368C136.501 30.5487 127.143 46.4988 127.143 50.8599C127.143 52.0475 127.658 52.5594 128.751 52.5594C134.46 52.5594 148.148 40.4996 150.003 38.4316C150.126 38.2473 150.333 38.1654 150.559 38.1654C150.972 38.1654 151.343 38.5135 151.343 38.9435C151.343 39.1482 151.281 39.3325 151.136 39.4554C149.24 41.5848 135.038 54.1155 128.751 54.1155C126.792 54.1155 125.597 52.9075 125.597 50.8804C125.597 46.1097 135.099 29.914 141.84 22.2768C142.706 21.2531 143.468 20.4545 144.149 19.7993V19.7584Z" fill="#665C5C"/>
<path d="M146.416 46.335C146.416 43.6732 147.9 40.561 150.065 38.5135C150.415 38.1654 150.724 38.104 150.868 38.2678L151.075 38.5135C151.693 36.2612 153.425 34.7461 155.568 34.7461C157.506 34.7461 158.681 36.036 158.681 38.1449C158.681 40.3562 157.485 43.018 155.836 45.1884C156.187 45.2498 156.578 45.2703 156.991 45.2703C162.948 45.2703 167.895 39.9058 168.946 38.4521C169.091 38.2678 169.297 38.1654 169.565 38.1654C169.977 38.1654 170.327 38.5135 170.327 38.9435C170.327 39.1278 170.266 39.2711 170.183 39.4144C169.049 40.8886 163.628 46.8264 156.97 46.8264C156.145 46.8264 155.403 46.7035 154.723 46.4988C153.053 48.2596 151.095 49.5086 149.446 49.5086C147.57 49.5086 146.416 48.3006 146.416 46.3554V46.335ZM153.28 45.7821C151.714 44.7174 150.807 42.8542 150.807 40.4791C150.807 40.2948 150.807 40.131 150.827 39.9468C149.116 41.6871 147.941 44.226 147.941 46.335C147.941 47.4611 148.415 47.9525 149.426 47.9525C150.58 47.9525 151.982 47.0721 153.26 45.7617L153.28 45.7821ZM157.135 38.1449C157.135 36.8755 156.599 36.2817 155.568 36.2817C153.734 36.2817 152.353 38.0835 152.353 40.4791C152.353 42.4242 153.033 43.837 154.311 44.6151C155.919 42.6495 157.135 40.1105 157.135 38.1654V38.1449Z" fill="#665C5C"/>
<path d="M165.566 46.335C165.566 43.6732 167.05 40.561 169.214 38.5135C169.565 38.1654 169.874 38.104 170.018 38.2678L170.224 38.5135C170.843 36.2612 172.574 34.7461 174.697 34.7461C176.635 34.7461 177.81 36.036 177.81 38.1449C177.81 40.3562 176.614 43.018 174.965 45.1884C175.316 45.2498 175.707 45.2703 176.12 45.2703C182.097 45.2703 187.024 39.9058 188.075 38.4521C188.219 38.2678 188.426 38.1654 188.694 38.1654C189.106 38.1654 189.456 38.5135 189.456 38.9435C189.456 39.1278 189.394 39.2711 189.312 39.4144C188.178 40.8886 182.757 46.8264 176.099 46.8264C175.274 46.8264 174.532 46.7035 173.852 46.4988C172.182 48.2596 170.224 49.5086 168.575 49.5086C166.699 49.5086 165.545 48.3006 165.545 46.3554L165.566 46.335ZM172.43 45.7821C170.863 44.7174 169.956 42.8542 169.956 40.4791C169.956 40.2948 169.956 40.131 169.977 39.9468C168.245 41.6871 167.091 44.226 167.091 46.335C167.091 47.4611 167.565 47.9525 168.575 47.9525C169.729 47.9525 171.131 47.0721 172.409 45.7617L172.43 45.7821ZM176.284 38.1449C176.284 36.8755 175.748 36.2817 174.718 36.2817C172.883 36.2817 171.502 38.0835 171.502 40.4791C171.502 42.4242 172.182 43.837 173.46 44.6151C175.068 42.6495 176.284 40.1105 176.284 38.1654V38.1449Z" fill="#665C5C"/>
<path d="M182.654 48.4644C182.654 46.9083 187.972 38.1654 191.538 33.7428C191.662 33.5586 191.889 33.4562 192.136 33.4562C192.548 33.4562 192.919 33.8043 192.919 34.2342C192.919 34.4185 192.858 34.5823 192.734 34.7052C190.92 36.9779 188.281 41.0115 186.406 44.1441C185.932 44.9222 186.2 45.2907 187.086 44.4103C194.033 37.5102 197.331 34.7666 199.31 34.7666C200.278 34.7666 200.876 35.4832 200.876 36.466C200.876 37.8174 199.681 40.4996 198.65 42.8133C198.258 43.6323 197.99 44.2875 197.764 44.8198C197.413 45.6388 197.64 45.905 198.382 45.2907C199.186 44.6151 200.278 43.6323 201.701 42.2809C205.968 38.3292 207.679 36.9984 208.853 36.9984C209.946 36.9984 210.544 37.715 210.544 38.8616C210.544 40.0901 209.76 42.1376 209.121 43.837C208.379 45.7821 208.173 46.4988 208.173 46.8264C208.173 47.3587 208.235 47.4201 208.833 47.4201C212.213 47.4201 217.594 42.8542 222.644 38.3907C222.767 38.2678 222.932 38.1859 223.159 38.1859C223.571 38.1859 223.942 38.534 223.942 38.964C223.942 39.2097 223.86 39.4144 223.674 39.5168C218.624 44.0213 212.832 48.9558 208.853 48.9558C207.39 48.9558 206.648 48.2391 206.648 46.8264C206.648 46.0893 207.184 44.697 207.72 43.3251C208.338 41.6257 209.018 39.8444 209.018 38.8821C209.018 38.6978 208.998 38.5545 208.75 38.5545C208.194 38.5545 206.648 39.8239 202.793 43.4275C198.939 47.0311 197.516 48.1368 196.506 48.1368C195.888 48.1368 195.496 47.6249 195.496 47.0106C195.496 46.1302 196.382 44.1441 197.248 42.199C198.815 38.7183 199.351 37.2441 199.351 36.5889C199.351 36.4455 199.351 36.3022 199.083 36.3022C198.011 36.3022 194.754 38.9844 188.178 45.4955C185.87 47.7682 184.324 49.4267 183.54 49.4267C183.004 49.4267 182.654 49.0172 182.654 48.4848V48.4644Z" fill="#665C5C"/>
<path d="M245.153 39.1687C244.803 39.0458 244.494 38.5135 244.617 38.0835C244.741 37.674 245.03 37.3464 245.442 37.0802C246.267 36.5479 247.256 36.0155 248.864 35.0532C253.316 31.2858 256.099 26.8223 256.099 23.1777C256.099 20.7207 254.429 19.2875 251.585 19.2875C238.145 19.2875 223.489 39.9672 223.489 49.9795C223.489 54.0131 225.323 55.9377 229.137 55.9377C239.876 55.9377 255.316 40.3972 257.459 38.1245C257.604 37.9812 257.81 37.8788 258.016 37.8788C258.428 37.8788 258.799 38.2269 258.799 38.6364C258.799 38.8411 258.717 39.0254 258.593 39.1687C256.449 41.4414 240.536 57.4529 229.137 57.4529C224.437 57.4529 221.943 54.8321 221.943 49.959C221.943 39.4553 237.362 17.7314 251.585 17.7314C255.274 17.7314 257.645 19.8608 257.645 23.1572C257.645 27.457 254.429 32.5143 249.338 36.6298C247.709 37.8583 246.04 39.4553 245.153 39.1687Z" fill="#665C5C"/>
<path d="M252.512 49.2015C252.306 49.6519 252.389 49.9386 252.904 49.3243C253.089 49.1196 253.873 48.1368 254.306 47.6044C255.522 46.1302 256.862 44.4308 258.263 42.7928C262.51 37.8993 265.272 35.647 267.23 35.647C268.652 35.647 269.374 36.6503 269.374 38.3088C269.374 39.4554 269.044 40.9296 268.755 42.2604C268.487 43.4889 268.24 44.5946 268.24 45.3522C268.24 46.8878 268.838 47.4816 270.116 47.4816C272.94 47.4816 279.021 42.8133 284.071 38.3702C284.195 38.2473 284.36 38.1654 284.586 38.1654C284.999 38.1654 285.349 38.5135 285.349 38.9435C285.349 39.1892 285.267 39.3939 285.081 39.4963C278.114 45.7002 272.754 49.0172 270.116 49.0172C268.013 49.0172 266.694 47.7477 266.694 45.3522C266.694 44.4103 266.962 43.1409 267.251 41.9328C267.519 40.602 267.807 39.312 267.807 38.3088C267.807 37.3874 267.622 37.1826 267.209 37.1826C265.849 37.1826 263.293 39.3325 259.438 43.7961C258.078 45.3931 256.717 47.0721 255.522 48.5667C253.172 51.4537 251.688 53.4603 250.781 53.4603C250.183 53.4603 249.791 52.9894 249.791 52.3751C249.791 48.8739 261.871 30.1597 268.879 22.2359C269.745 21.2121 270.508 20.4136 271.188 19.7584C271.579 19.4103 271.992 19.2056 272.383 19.2056C272.857 19.2056 273.27 19.5536 273.27 19.9836C273.27 20.905 271.641 22.0106 270.219 23.1368C264.406 29.5659 255.048 43.8165 252.533 49.2015H252.512Z" fill="#665C5C"/>
<path d="M281.474 45.3521C281.474 42.4037 284.628 37.2031 286.545 34.828C286.668 34.6437 286.895 34.5413 287.143 34.5413C287.555 34.5413 287.926 34.8894 287.926 35.3194C287.926 35.5037 287.864 35.6675 287.74 35.7903C285.225 38.9435 283.02 43.3661 283.02 45.3726C283.02 46.9082 283.618 47.502 285.184 47.502C288.4 47.502 293.553 44.3693 300.335 38.3906C300.459 38.2678 300.624 38.1859 300.83 38.1859C301.242 38.1859 301.613 38.534 301.613 38.9639C301.613 39.2096 301.531 39.4144 301.345 39.5168C294.275 45.8231 288.874 49.0376 285.184 49.0376C282.773 49.0376 281.474 47.7682 281.474 45.3726V45.3521ZM289.286 30.7739C289.286 30.5896 289.369 30.4258 289.472 30.303C289.76 29.914 290.296 29.3611 290.626 28.8493C290.75 28.665 290.977 28.5626 291.224 28.5626C291.636 28.5626 292.007 28.9107 292.007 29.3202C292.007 29.5045 291.945 29.6683 291.822 29.8321C291.471 30.2825 290.997 30.8558 290.688 31.2449C290.544 31.4291 290.296 31.5315 290.07 31.5315C289.657 31.5315 289.286 31.1834 289.286 30.7739Z" fill="#665C5C"/>
<path d="M297.594 45.0246C297.594 40.52 302.788 34.7256 306.911 34.7256C308.58 34.7256 309.611 35.647 309.611 37.1212C309.611 38.5954 308.622 40.3358 307.302 41.2162C307.179 41.2776 307.034 41.3391 306.89 41.3391C306.478 41.3391 306.107 40.991 306.107 40.561C306.107 40.2948 306.251 40.0491 306.457 39.9058C307.344 39.312 308.065 38.104 308.065 37.1007C308.065 36.5069 307.735 36.2408 306.911 36.2408C303.654 36.2408 299.139 41.3186 299.139 45.0041C299.139 47.3382 300.5 48.6077 302.932 48.6077C306.931 48.6077 314.661 45.5774 318.578 39.6396C318.722 39.4349 318.969 39.2915 319.237 39.2915C319.65 39.2915 320 39.6396 320 40.0491C320 40.1924 319.938 40.3358 319.876 40.4996C315.671 46.8059 307.22 50.1433 302.932 50.1433C299.634 50.1433 297.594 48.1777 297.594 45.0041V45.0246Z" fill="#665C5C"/>
</g>
<defs>
<clipPath id="clip0_22_339">
<rect width="320" height="75" fill="white"/>
</clipPath>
</defs>
</svg>
